<svg width="24" height="24" viewBox="0 0 24 24" fill="none" xmlns="http://www.w3.org/2000/svg">
<path d="M15.6898 2.87075L14.7752 2.49552L15.0149 3.4546C15.1222 3.8838 15.208 4.31253 15.2722 4.74084C15.3352 5.16101 15.3667 5.58066 15.3667 6C15.3667 8.60154 14.4577 10.8019 12.6298 12.6298C10.8019 14.4577 8.60154 15.3667 6 15.3667C5.58066 15.3667 5.16101 15.3352 4.74084 15.2722C4.31254 15.208 3.88381 15.1222 3.4546 15.0149L2.49552 14.7752L2.87075 15.6898C3.61891 17.5134 4.81447 18.9955 6.44858 20.1277C8.0907 21.2654 9.94629 21.8333 12 21.8333C14.7103 21.8333 17.0375 20.8696 18.9536 18.9536C20.8696 17.0375 21.8333 14.7103 21.8333 12C21.8333 9.94629 21.2654 8.0907 20.1277 6.44858C18.9955 4.81447 17.5134 3.61891 15.6898 2.87075ZM23.5 12C23.5 15.2022 22.3849 17.9079 20.1464 20.1464C17.9079 22.3849 15.2022 23.5 12 23.5C8.79776 23.5 6.09205 22.3849 3.85355 20.1464C1.61505 17.9079 0.5 15.2022 0.5 12C0.5 11.8069 0.50445 11.6163 0.513326 11.4282C1.06044 11.9798 1.69578 12.4457 2.41693 12.8257C3.52414 13.4091 4.72109 13.7 6 13.7C8.13109 13.7 9.95872 12.9484 11.4536 11.4536C12.9484 9.95872 13.7 8.13109 13.7 6C13.7 4.70048 13.4098 3.49688 12.8246 2.39829C12.4451 1.68574 11.9802 1.05668 11.4301 0.513237C11.6176 0.504421 11.8076 0.5 12 0.5C15.2022 0.5 17.9079 1.61505 20.1464 3.85355C22.3849 6.09205 23.5 8.79776 23.5 12Z" fill="#A3A3A3" stroke="#A3A3A3"/>
</svg>
