<svg width="24" height="25" viewBox="0 0 24 25" fill="none" xmlns="http://www.w3.org/2000/svg">
<path d="M15.2727 12.3334C15.2727 11.4243 14.9545 10.6516 14.3182 10.0152C13.6818 9.37883 12.9091 9.06065 12 9.06065C11.0909 9.06065 10.3182 9.37883 9.68182 10.0152C9.04545 10.6516 8.72727 11.4243 8.72727 12.3334C8.72727 13.2425 9.04545 14.0152 9.68182 14.6516C10.3182 15.2879 11.0909 15.6061 12 15.6061C12.9091 15.6061 13.6818 15.2879 14.3182 14.6516C14.9545 14.0152 15.2727 13.2425 15.2727 12.3334ZM17.4545 12.3334C17.4545 13.8425 16.9227 15.1288 15.8591 16.1925C14.7955 17.2561 13.5091 17.7879 12 17.7879C10.4909 17.7879 9.20455 17.2561 8.14091 16.1925C7.07727 15.1288 6.54545 13.8425 6.54545 12.3334C6.54545 10.8243 7.07727 9.53792 8.14091 8.47428C9.20455 7.41065 10.4909 6.87883 12 6.87883C13.5091 6.87883 14.7955 7.41065 15.8591 8.47428C16.9227 9.53792 17.4545 10.8243 17.4545 12.3334ZM13.0909 19.9697L13.0909 24.3334H10.9091L10.9091 19.9697H13.0909ZM13.0909 0.333373L13.0909 4.69701H10.9091L10.9091 0.333373H13.0909ZM4.36364 13.4243L0 13.4243L0 11.2425L4.36364 11.2425L4.36364 13.4243ZM24 13.4243L19.6364 13.4243V11.2425L24 11.2425V13.4243ZM7.36364 18.4425L4.71818 21.197L3.10909 19.6425L5.83636 17.0243L7.36364 18.4425ZM20.8909 5.02428L18.1364 7.66974L16.6364 6.22428L19.2818 3.46974L20.8909 5.02428ZM5.89091 7.69701L3.13636 5.05155L4.69091 3.44246L7.30909 6.16974L5.89091 7.69701ZM19.3091 21.2243L16.6636 18.4697L18.1091 16.9697L20.8636 19.6152L19.3091 21.2243Z" fill="#A3A3A3"/>
</svg>
